<svg width="12" height="4" viewBox="0 0 12 4" fill="none" xmlns="http://www.w3.org/2000/svg">
<path d="M6.00008 2.66683C6.36827 2.66683 6.66675 2.36835 6.66675 2.00016C6.66675 1.63197 6.36827 1.3335 6.00008 1.3335C5.63189 1.3335 5.33341 1.63197 5.33341 2.00016C5.33341 2.36835 5.63189 2.66683 6.00008 2.66683Z" stroke="#62636B" stroke-linecap="round" stroke-linejoin="round"/>
<path d="M10.6667 2.66683C11.0349 2.66683 11.3334 2.36835 11.3334 2.00016C11.3334 1.63197 11.0349 1.3335 10.6667 1.3335C10.2986 1.3335 10.0001 1.63197 10.0001 2.00016C10.0001 2.36835 10.2986 2.66683 10.6667 2.66683Z" stroke="#62636B" stroke-linecap="round" stroke-linejoin="round"/>
<path d="M1.33341 2.66683C1.7016 2.66683 2.00008 2.36835 2.00008 2.00016C2.00008 1.63197 1.7016 1.3335 1.33341 1.3335C0.965225 1.3335 0.666748 1.63197 0.666748 2.00016C0.666748 2.36835 0.965225 2.66683 1.33341 2.66683Z" stroke="#62636B" stroke-linecap="round" stroke-linejoin="round"/>
</svg>
